<svg xmlns="http://www.w3.org/2000/svg" xmlns:xlink="http://www.w3.org/1999/xlink" viewBox="0 0 2295.55 1037.9"><defs><style>.cls-1,.cls-12,.cls-14,.cls-16,.cls-18,.cls-20,.cls-22,.cls-9{fill:none;}.cls-2{clip-path:url(#clip-path);}.cls-3{clip-path:url(#clip-path-2);}.cls-4{opacity:0.66;}.cls-5{clip-path:url(#clip-path-3);}.cls-6{fill:#2c2c2c;}.cls-7{opacity:0.8;}.cls-8{clip-path:url(#clip-path-4);}.cls-9{stroke:#e6db4a;}.cls-12,.cls-14,.cls-16,.cls-18,.cls-20,.cls-22,.cls-9{stroke-miterlimit:10;stroke-width:9px;}.cls-10{opacity:0.9;}.cls-11{clip-path:url(#clip-path-5);}.cls-12{stroke:#faec54;}.cls-13{clip-path:url(#clip-path-6);}.cls-14{stroke:#ebe16e;}.cls-15{clip-path:url(#clip-path-7);}.cls-16{stroke:#e5e2ba;}.cls-17{clip-path:url(#clip-path-8);}.cls-18{stroke:#fff;}.cls-19{clip-path:url(#clip-path-9);}.cls-20{stroke:#9fbf45;}.cls-21{clip-path:url(#clip-path-10);}.cls-22{stroke:#79ae49;}</style><clipPath id="clip-path" transform="translate(-61.74 -408.34)"><rect class="cls-1" width="2432.35" height="1803.13"/></clipPath><clipPath id="clip-path-2" transform="translate(-61.74 -408.34)"><rect class="cls-1" width="2432.35" height="1803.13"/></clipPath><clipPath id="clip-path-3" transform="translate(-61.74 -408.34)"><rect class="cls-1" x="439.87" y="575.67" width="1528.83" height="687.94"/></clipPath><clipPath id="clip-path-4" transform="translate(-61.74 -408.34)"><rect class="cls-1" x="348.91" y="538.38" width="1706.58" height="772.87"/></clipPath><clipPath id="clip-path-5" transform="translate(-61.74 -408.34)"><rect class="cls-1" x="541.6" y="627.16" width="1301.14" height="590.44"/></clipPath><clipPath id="clip-path-6" transform="translate(-61.74 -408.34)"><rect class="cls-1" x="689.71" y="694.36" width="987.94" height="449.49"/></clipPath><clipPath id="clip-path-7" transform="translate(-61.74 -408.34)"><rect class="cls-1" x="813.08" y="752.99" width="725.23" height="331.29"/></clipPath><clipPath id="clip-path-8" transform="translate(-61.74 -408.34)"><rect class="cls-1" x="922.36" y="802.77" width="494.45" height="227.44"/></clipPath><clipPath id="clip-path-9" transform="translate(-61.74 -408.34)"><rect class="cls-1" x="224.74" y="483.99" width="1959.15" height="886.52"/></clipPath><clipPath id="clip-path-10" transform="translate(-61.74 -408.34)"><rect class="cls-1" x="61.74" y="408.34" width="2295.55" height="1037.9"/></clipPath></defs><title>Asset 1</title><g id="Layer_2" data-name="Layer 2"><g id="Layer_1-2" data-name="Layer 1"><g class="cls-2"><g class="cls-3"><g class="cls-4"><g class="cls-5"><path class="cls-6" d="M449.48,1130.05c-17.38-43.36-68.06-247.9,478.66-327.4a338.67,338.67,0,0,0,123.74-43.42c107.51-63.55,163.27-94.93,190.71-109.89q18.63-10.15,37-20.72c38.59-22.29,159.61-80.5,311.34-37.55,185,52.35,337.53,97.54,374.24,223.56,30.84,105.9-148.51,199.08-206.59,226.15-8.8,4.1-17.48,8.41-26,13-29.66,16.13-147,63.93-479.64,49.94-94.19-4-187,12-272.22,47-75.35,30.92-115.54,49.59-137,60.7a465.78,465.78,0,0,1-149.46,48c-89.19,12.52-199.71,2.73-237.19-108.21-2.39-7.1-4.85-14.17-7.65-21.14" transform="translate(-61.74 -408.34)"/></g></g><g class="cls-7"><g class="cls-8"><path class="cls-9" d="M364.08,1158.45c-19.3-48.14-75.58-275.26,531.49-363.53A376.2,376.2,0,0,0,1033,746.7c119.39-70.56,181.3-105.41,211.77-122,13.79-7.52,27.5-15.15,41.09-23,42.84-24.76,177.22-89.39,345.7-41.71,205.37,58.13,374.78,108.32,415.54,248.25,34.25,117.58-164.9,221-229.39,251.11-9.76,4.55-19.41,9.33-28.85,14.47-32.92,17.9-163.27,71-532.57,55.45-104.59-4.4-207.63,13.3-302.28,52.14-83.67,34.33-128.28,55.07-152.07,67.4a517,517,0,0,1-166,53.29c-99,13.9-221.76,3-263.37-120.16C369.91,1174,367.18,1166.19,364.08,1158.45Z" transform="translate(-61.74 -408.34)"/></g></g><g class="cls-10"><g class="cls-11"><path class="cls-12" d="M554.22,1100.21c-14.69-36.64-57.53-209.52,404.55-276.71a286,286,0,0,0,104.58-36.7c90.87-53.7,138-80.23,161.19-92.88q15.74-8.58,31.27-17.5c32.61-18.85,134.9-68,263.14-31.75,156.32,44.25,285.27,82.45,316.3,189,26.06,89.5-125.52,168.26-174.61,191.13-7.43,3.47-14.77,7.11-22,11-25.06,13.63-124.28,54-405.37,42.2-79.61-3.34-158,10.13-230.08,39.69-63.69,26.14-97.65,41.92-115.76,51.3a393.44,393.44,0,0,1-126.32,40.57c-75.38,10.58-168.79,2.3-200.47-91.46C558.66,1112.08,556.58,1106.1,554.22,1100.21Z" transform="translate(-61.74 -408.34)"/></g></g><g class="cls-10"><g class="cls-13"><path class="cls-14" d="M700.37,1053.83c-11.13-27.76-43.59-158.73,306.49-209.63a217,217,0,0,0,79.23-27.81c68.84-40.69,104.55-60.79,122.11-70.36,8-4.34,15.86-8.74,23.7-13.27,24.7-14.28,102.2-51.55,199.35-24,118.43,33.52,216.13,62.46,239.63,143.16,19.75,67.8-95.09,127.47-132.28,144.8-5.63,2.63-11.19,5.38-16.64,8.35-19,10.32-94.15,40.93-307.11,32-60.32-2.53-119.73,7.67-174.31,30.07-48.25,19.8-74,31.76-87.7,38.87a298.07,298.07,0,0,1-95.7,30.73c-57.11,8-127.88,1.74-151.87-69.29C703.73,1062.83,702.15,1058.3,700.37,1053.83Z" transform="translate(-61.74 -408.34)"/></g></g><g class="cls-10"><g class="cls-15"><path class="cls-16" d="M822.08,1017.21c-8.15-20.31-31.89-116.14,224.24-153.38a158.51,158.51,0,0,0,58-20.35c50.37-29.76,76.49-44.47,89.35-51.48q8.73-4.75,17.34-9.7c18.07-10.45,74.77-37.72,145.85-17.6,86.65,24.53,158.13,45.7,175.33,104.74,14.45,49.61-69.58,93.27-96.79,105.95-4.12,1.92-8.19,3.94-12.17,6.1-13.89,7.56-68.89,30-224.7,23.4a302.13,302.13,0,0,0-127.54,22c-35.3,14.48-54.12,23.23-64.16,28.43a217.93,217.93,0,0,1-70,22.49c-41.78,5.87-93.56,1.28-111.12-50.7C824.54,1023.79,823.39,1020.47,822.08,1017.21Z" transform="translate(-61.74 -408.34)"/></g></g><g class="cls-10"><g class="cls-17"><path class="cls-18" d="M929.91,983.3c-5.52-13.77-21.61-78.71,152-104a107.54,107.54,0,0,0,39.29-13.78c34.14-20.18,51.84-30.15,60.55-34.9,4-2.15,7.87-4.33,11.76-6.58,12.25-7.08,50.68-25.56,98.85-11.92,58.73,16.62,107.18,31,118.83,71,9.8,33.62-47.15,63.21-65.59,71.81q-4.2,1.95-8.25,4.13c-9.42,5.12-46.7,20.3-152.3,15.86a204.75,204.75,0,0,0-86.44,14.91c-23.93,9.82-36.69,15.75-43.49,19.27a147.52,147.52,0,0,1-47.46,15.24c-28.32,4-63.41.87-75.31-34.36C931.58,987.76,930.8,985.52,929.91,983.3Z" transform="translate(-61.74 -408.34)"/></g></g><g class="cls-7"><g class="cls-19"><path class="cls-20" d="M241.49,1195.65C219.32,1140.34,154.68,879.43,852.06,778a432.19,432.19,0,0,0,157.84-55.4c137.15-81,208.27-121.09,243.27-140.17q23.76-13,47.2-26.43c49.22-28.44,203.6-102.69,397.14-47.9,235.92,66.77,430.55,124.42,477.37,285.18,39.34,135.07-189.44,253.94-263.52,288.47-11.22,5.22-22.3,10.72-33.15,16.62-37.82,20.57-187.56,81.54-611.81,63.7-120.15-5-238.51,15.28-347.24,59.9-96.12,39.44-147.38,63.26-174.71,77.42a594.07,594.07,0,0,1-190.64,61.23c-113.77,16-254.76,3.47-302.56-138C248.2,1213.56,245.06,1204.54,241.49,1195.65Z" transform="translate(-61.74 -408.34)"/></g></g><g class="cls-7"><g class="cls-21"><path class="cls-22" d="M80.61,1242c-26-64.85-101.79-370.77,715.89-489.66a506.68,506.68,0,0,0,185.07-65c160.8-95,244.19-142,285.23-164.35q27.85-15.18,55.35-31c57.7-33.35,238.71-120.4,465.64-56.17,276.62,78.3,504.81,145.89,559.71,334.37,46.13,158.38-222.11,297.75-309,338.23-13.15,6.13-26.13,12.57-38.85,19.49-44.35,24.12-219.93,95.61-717.35,74.69-140.88-5.92-279.66,17.92-407.15,70.23-112.7,46.25-172.79,74.18-204.84,90.78a696.2,696.2,0,0,1-223.53,71.79c-133.4,18.72-298.7,4.07-354.74-161.85C88.47,1263,84.79,1252.41,80.61,1242Z" transform="translate(-61.74 -408.34)"/></g></g></g></g></g></g></svg>