<svg xmlns="http://www.w3.org/2000/svg" xmlns:xlink="http://www.w3.org/1999/xlink" viewBox="0 0 463.11 58.57"><defs><style>.cls-1{fill:none;}.cls-2{clip-path:url(#clip-path);}.cls-3{fill:#fff;}</style><clipPath id="clip-path" transform="translate(-23.56 -13.23)"><rect class="cls-1" width="510.24" height="85.04"/></clipPath></defs><title>Asset 1</title><g id="Layer_2" data-name="Layer 2"><g id="Layer_1-2" data-name="Layer 1"><g class="cls-2"><path class="cls-3" d="M437.37,52.63c-.74,4.16-3.87,22.11-14.63,18.62s-4.44-13.59-4.44-13.59,6.66-10.33,7.05-16.51c0-.54.08-1.07.16-1.61.41-2.68.46-10.81,4.73-15.55,5.33-5.93,15-12.38,22.05-10.22s2.07,14.35,2.07,14.35-2.22,6.3-9.48,14.43c-1.16,1.3-2.41,2.55-3.71,3.76a12.2,12.2,0,0,0-3.8,6.32" transform="translate(-23.56 -13.23)"/><path class="cls-3" d="M456,49.09c-3.17,3.25-16.88,17.22-6.6,21.64s14.93-6.29,14.93-6.29,4.62-11.1,9.8-15.48c.45-.38.89-.77,1.3-1.17,2.1-2,9.21-7.52,10.53-13.38,1.65-7.31.84-17.71-5.76-20.68s-14,8.29-14,8.29-4.06,5.61-6.35,15.61a46.78,46.78,0,0,0-.83,4.85,11.66,11.66,0,0,1-3,6.61" transform="translate(-23.56 -13.23)"/><path class="cls-3" d="M48.7,23.57a12.07,12.07,0,0,1,5.51,3.86,9.87,9.87,0,0,1,0,11.75A12.07,12.07,0,0,1,48.7,43a23.79,23.79,0,0,1-8.4,1.35h-5v7.22H23.56V22.22H40.3a23.79,23.79,0,0,1,8.4,1.35M43.13,35.84a3.28,3.28,0,0,0,0-5.07,5.8,5.8,0,0,0-3.57-.91H35.29v6.89h4.27a5.8,5.8,0,0,0,3.57-.91" transform="translate(-23.56 -13.23)"/><path class="cls-3" d="M74.87,44.22H71.69v7.39H60V22.23H76.71a23.8,23.8,0,0,1,8.4,1.34,12.07,12.07,0,0,1,5.51,3.86,9.39,9.39,0,0,1,1.94,5.88,9.19,9.19,0,0,1-1.69,5.49A11.42,11.42,0,0,1,86,42.54l7.3,9.07H80.78Zm4.67-13.45A5.8,5.8,0,0,0,76,29.86H71.69v6.89H76a5.87,5.87,0,0,0,3.57-.9,3.31,3.31,0,0,0,0-5.08" transform="translate(-23.56 -13.23)"/><path class="cls-3" d="M105.12,50.3a16.74,16.74,0,0,1-7-5.47,13.65,13.65,0,0,1,0-15.83,16.74,16.74,0,0,1,7-5.47,26.67,26.67,0,0,1,20.17,0,16.74,16.74,0,0,1,7,5.47,13.6,13.6,0,0,1,0,15.83,16.74,16.74,0,0,1-7,5.47,26.67,26.67,0,0,1-20.17,0m14-6.94a7.25,7.25,0,0,0,0-12.89,9.12,9.12,0,0,0-7.9,0A7.08,7.08,0,0,0,108.45,33a7.78,7.78,0,0,0,0,7.77,7.08,7.08,0,0,0,2.81,2.56,9.12,9.12,0,0,0,7.9,0" transform="translate(-23.56 -13.23)"/><path class="cls-3" d="M143.64,51.46a25.53,25.53,0,0,1-6.73-2.2L140.69,42a26.69,26.69,0,0,0,5.56,2,25.4,25.4,0,0,0,5.91.73,10.64,10.64,0,0,0,3.48-.4c.69-.26,1-.66,1-1.19s-.45-1.08-1.37-1.39a32.78,32.78,0,0,0-4.49-1,58.64,58.64,0,0,1-6.71-1.54,11.68,11.68,0,0,1-4.66-2.68,6.6,6.6,0,0,1-2-5.06,7.78,7.78,0,0,1,1.84-5,12.07,12.07,0,0,1,5.48-3.57,26.78,26.78,0,0,1,8.87-1.3,38.15,38.15,0,0,1,7,.65,24.82,24.82,0,0,1,6.08,1.91l-3.52,7.18a24.81,24.81,0,0,0-9.69-2.18c-3,0-4.52.61-4.52,1.85,0,.58.45,1,1.34,1.32a32.85,32.85,0,0,0,4.42.94,51.63,51.63,0,0,1,6.71,1.45,12,12,0,0,1,4.74,2.67,6.49,6.49,0,0,1,2,5,7.75,7.75,0,0,1-1.83,5A12.41,12.41,0,0,1,160.93,51a26.24,26.24,0,0,1-8.87,1.32,43.32,43.32,0,0,1-8.42-.82" transform="translate(-23.56 -13.23)"/><polygon class="cls-3" points="155.22 16.67 145.04 16.67 145.04 8.99 177.13 8.99 177.13 16.67 166.95 16.67 166.95 38.37 155.22 38.37 155.22 16.67"/><path class="cls-3" d="M211.37,50.3a16.68,16.68,0,0,1-7-5.47,13.6,13.6,0,0,1,0-15.83,16.68,16.68,0,0,1,7-5.47,26.67,26.67,0,0,1,20.17,0,16.74,16.74,0,0,1,7,5.47,13.65,13.65,0,0,1,0,15.83,16.74,16.74,0,0,1-7,5.47,26.67,26.67,0,0,1-20.17,0m14-6.94a7.08,7.08,0,0,0,2.81-2.56,7.78,7.78,0,0,0,0-7.77,7.08,7.08,0,0,0-2.81-2.56,9.12,9.12,0,0,0-7.9,0,7.25,7.25,0,0,0,0,12.89,9.12,9.12,0,0,0,7.9,0" transform="translate(-23.56 -13.23)"/><path class="cls-3" d="M291.87,50.3a16.78,16.78,0,0,1-7-5.47,13.65,13.65,0,0,1,0-15.83,16.78,16.78,0,0,1,7-5.47,24.64,24.64,0,0,1,10.08-2h24.32a24.34,24.34,0,0,1,9.63,2,16.74,16.74,0,0,1,7,5.47,13.6,13.6,0,0,1,0,15.83,16.74,16.74,0,0,1-7,5.47,24.31,24.31,0,0,1-9.59,2H302a24.64,24.64,0,0,1-10.08-2m37.89-6.94a7,7,0,0,0,2.81-2.56,7.78,7.78,0,0,0,0-7.77,7,7,0,0,0-2.81-2.56,8.58,8.58,0,0,0-3.68-.9H302a8.57,8.57,0,0,0-3.95.9,7.25,7.25,0,0,0,0,12.89,8.57,8.57,0,0,0,3.95.9h24.32a8.38,8.38,0,0,0,3.49-.89" transform="translate(-23.56 -13.23)"/><path class="cls-3" d="M359.08,50.3a16.78,16.78,0,0,1-7-5.47,13.65,13.65,0,0,1,0-15.83,16.78,16.78,0,0,1,7-5.47,24.64,24.64,0,0,1,10.08-2h24.32a24.34,24.34,0,0,1,9.63,2,16.74,16.74,0,0,1,7,5.47,13.65,13.65,0,0,1,0,15.83,16.74,16.74,0,0,1-7,5.47,24.35,24.35,0,0,1-9.59,2H369.16a24.64,24.64,0,0,1-10.08-2M397,43.36a7.24,7.24,0,0,0,0-12.89,8.58,8.58,0,0,0-3.68-.9H369.16a8.57,8.57,0,0,0-4,.9,7.25,7.25,0,0,0,0,12.89,8.57,8.57,0,0,0,4,.9h24.32a8.42,8.42,0,0,0,3.49-.89" transform="translate(-23.56 -13.23)"/><path class="cls-3" d="M270.48,23.57A12.07,12.07,0,0,1,276,27.43a9.87,9.87,0,0,1,0,11.75A12.07,12.07,0,0,1,270.48,43a23.79,23.79,0,0,1-8.4,1.35h-5v7.22H245.34V22.22h16.74a23.79,23.79,0,0,1,8.4,1.35m-5.57,12.27a3.28,3.28,0,0,0,0-5.07,5.8,5.8,0,0,0-3.57-.91h-4.27v6.89h4.27a5.8,5.8,0,0,0,3.57-.91" transform="translate(-23.56 -13.23)"/></g></g></g></svg>